<?xml version="1.0" standalone="no"?><!DOCTYPE svg PUBLIC "-//W3C//DTD SVG 1.1//EN" "http://www.w3.org/Graphics/SVG/1.1/DTD/svg11.dtd"><svg t="1593093358715" class="icon" viewBox="0 0 1024 1024" version="1.1" xmlns="http://www.w3.org/2000/svg" p-id="3137" xmlns:xlink="http://www.w3.org/1999/xlink" width="128" height="128"><defs><style type="text/css"></style></defs><path d="M874.666667 42.666667H320a85.333333 85.333333 0 0 0-85.333333 85.333333v42.666667H149.333333a85.333333 85.333333 0 0 0-85.333333 85.333333v640a85.333333 85.333333 0 0 0 85.333333 85.333333h554.666667a85.333333 85.333333 0 0 0 85.333333-85.333333v-42.666667h85.333334a85.333333 85.333333 0 0 0 85.333333-85.333333V128a85.333333 85.333333 0 0 0-85.333333-85.333333z m-149.333334 853.333333a21.333333 21.333333 0 0 1-21.333333 21.333333H149.333333a21.333333 21.333333 0 0 1-21.333333-21.333333V256a21.333333 21.333333 0 0 1 21.333333-21.333333h554.666667a21.333333 21.333333 0 0 1 21.333333 21.333333z m170.666667-128a21.333333 21.333333 0 0 1-21.333333 21.333333h-85.333334V256a85.333333 85.333333 0 0 0-85.333333-85.333333H298.666667V128a21.333333 21.333333 0 0 1 21.333333-21.333333h554.666667a21.333333 21.333333 0 0 1 21.333333 21.333333z" p-id="3138"></path><path d="M556.586667 590.933333a32 32 0 0 0 0-64h-91.733334l115.84-132.48a32 32 0 0 0-48.213333-42.666666l-106.666667 120.96-106.666666-120.96a32 32 0 0 0-48.213334 42.666666l115.84 132.48h-91.733333a32 32 0 0 0 0 64h99.626667V618.666667h-97.92a32 32 0 0 0 0 64h97.92v117.333333a32 32 0 0 0 64 0V682.666667h97.92a32 32 0 0 0 0-64H458.666667v-27.733334z" p-id="3139"></path></svg>