<?xml version="1.0" standalone="no"?><!DOCTYPE svg PUBLIC "-//W3C//DTD SVG 1.1//EN" "http://www.w3.org/Graphics/SVG/1.1/DTD/svg11.dtd"><svg t="1594022919496" class="icon" viewBox="0 0 1024 1024" version="1.1" xmlns="http://www.w3.org/2000/svg" p-id="7134" xmlns:xlink="http://www.w3.org/1999/xlink" width="128" height="128"><defs><style type="text/css"></style></defs><path d="M284.8 896c22.4 0 41.6-22.4 41.6-48l-22.4-380.8 19.2-9.6c54.4-22.4 92.8-96 92.8-176C416 176 355.2 96 288 96S160 176 160 281.6c0 80 38.4 150.4 89.6 176l19.2 9.6v22.4l-22.4 358.4c0 25.6 19.2 48 38.4 48z m86.4-390.4l19.2 339.2c0 64-44.8 115.2-105.6 115.2-57.6 0-105.6-51.2-105.6-115.2l19.2-342.4c-64-41.6-105.6-128-105.6-220.8C96 144 179.2 32 288 32c108.8 0 192 112 192 249.6 0 96-41.6 182.4-108.8 224z m278.4-6.4c-64-35.2-105.6-105.6-105.6-182.4V64h64v249.6c0 60.8 35.2 115.2 86.4 134.4l22.4 9.6v22.4l-22.4 364.8c0 28.8 19.2 48 44.8 48 22.4 0 44.8-22.4 44.8-51.2-19.2-320-22.4-364.8-22.4-368v-22.4l19.2-6.4c51.2-19.2 86.4-73.6 86.4-134.4V64h64v249.6c0 76.8-41.6 150.4-105.6 182.4 3.2 54.4 12.8 211.2 19.2 345.6 0 64-48 115.2-108.8 115.2s-108.8-51.2-108.8-115.2l22.4-342.4z m70.4-147.2h-64V64h64v288z m96 0h-64V64h64v288z" p-id="7135"></path></svg>