<?xml version="1.0" standalone="no"?><!DOCTYPE svg PUBLIC "-//W3C//DTD SVG 1.1//EN" "http://www.w3.org/Graphics/SVG/1.1/DTD/svg11.dtd"><svg t="1592999809491" class="icon" viewBox="0 0 1024 1024" version="1.1" xmlns="http://www.w3.org/2000/svg" p-id="2053" xmlns:xlink="http://www.w3.org/1999/xlink" width="128" height="128"><defs><style type="text/css"></style></defs><path d="M840.896 150.4v676.032c0 39.168-39.168 49.344-58.752 29.76l-49.344-48.576-48.576 48.576c-10.176 10.176-39.168 10.176-49.344 0l-49.344-48.576-48.576 48.576c-10.176 10.176-39.168 10.176-49.344 0l-49.344-48.576-48.576 48.576c-10.176 10.176-39.168 10.176-49.344 0l-49.344-39.168-48.576 49.344c-19.584 19.584-58.752 0-58.752-29.76V150.4z" fill="#e6e6e6" p-id="2054" data-spm-anchor-id="a313x.7781069.0.i8" class="selected"></path><path d="M840.896 150.4v676.032c0 26.112-17.408 39.168-34.816 39.168a34.112 34.112 0 0 1-23.936-10.176l-49.344-48.576-48.576 48.576a45.568 45.568 0 0 1-49.344 0l-49.344-48.576-48.576 48.576a35.776 35.776 0 0 1-24.96 7.296 35.776 35.776 0 0 1-24.64-7.232l-49.344-48.576-48.576 48.576A35.776 35.776 0 0 1 364.8 862.72a35.776 35.776 0 0 1-24.64-7.232l-49.344-39.168-48.576 49.344a29.376 29.376 0 0 1-19.584 8c-18.88 0-39.168-15.936-39.168-36.992V150.4h657.408m0-36.288H184.448a35.904 35.904 0 0 0-36.288 36.288v686.208a75.392 75.392 0 0 0 75.456 73.28 62.976 62.976 0 0 0 44.8-18.112l25.984-26.176 22.464 18.112c15.232 14.528 36.992 16.704 48.576 16.704s34.816-2.176 50.048-18.112l23.232-23.232 23.232 23.232c15.936 15.936 38.4 18.112 50.048 18.112s34.816-2.176 50.048-18.112l23.232-23.232 23.232 23.232c15.936 15.936 38.4 18.112 50.048 18.112s34.816-2.176 50.048-18.112l23.232-23.232 23.232 23.232a69.056 69.056 0 0 0 49.344 20.288c40.64 0 71.104-32.64 71.104-75.456V151.168a34.496 34.496 0 0 0-34.816-36.992z" fill="#8a8a8a" p-id="2055"></path><path d="M245.376 331.776a34.304 34.304 0 0 1 32-32h359.68a30.784 30.784 0 0 1 32 32 34.304 34.304 0 0 1-32 32H271.488c-15.936 0-26.112-15.936-26.112-32" fill="#8a8a8a" p-id="2056"></path><path d="M637.056 381.824H271.488c-27.712 0-44.224-25.6-44.224-50.048A52.032 52.032 0 0 1 277.312 281.6h359.744a49.024 49.024 0 0 1 50.048 50.048 52.032 52.032 0 0 1-50.048 50.176z m-359.744-64a16.704 16.704 0 0 0-13.76 13.76c0 6.4 3.456 13.76 8 13.76h365.504a16.704 16.704 0 0 0 13.76-13.76 12.8 12.8 0 0 0-13.76-13.76z" fill="#8a8a8a" p-id="2057"></path><path d="M245.376 469.568a34.304 34.304 0 0 1 32-32h200.832a30.784 30.784 0 0 1 32 32 34.304 34.304 0 0 1-32 32h-206.72c-15.936 0-26.112-15.936-26.112-32" fill="#8a8a8a" p-id="2058"></path><path d="M478.208 519.616h-206.72c-27.712 0-44.224-25.6-44.224-50.048a52.032 52.032 0 0 1 50.048-50.048h200.896a49.024 49.024 0 0 1 50.048 50.048 52.032 52.032 0 0 1-50.048 50.048z m-200.896-64a16.704 16.704 0 0 0-13.76 13.76c0 6.4 3.456 13.76 8 13.76h206.72a16.704 16.704 0 0 0 13.76-13.76 12.8 12.8 0 0 0-13.76-13.76z" fill="#8a8a8a" p-id="2059"></path><path d="M245.376 608a34.304 34.304 0 0 1 32-32h311.808a30.784 30.784 0 0 1 32 32 34.304 34.304 0 0 1-32 32H272.256c-16.704-0.704-26.816-16.704-26.816-32" fill="#8a8a8a" p-id="2060"></path><path d="M589.184 658.176H271.424c-27.648-1.216-44.16-26.368-44.16-50.048a52.032 52.032 0 0 1 50.048-50.048h311.872a49.024 49.024 0 0 1 50.048 49.92 52.032 52.032 0 0 1-50.048 50.176z m-316.416-36.288h316.416A16.704 16.704 0 0 0 603.008 608a12.8 12.8 0 0 0-13.76-13.76H277.312A16.704 16.704 0 0 0 263.552 608c0 5.632 3.2 13.376 9.216 13.888z" fill="#8a8a8a" p-id="2061"></path></svg>