<?xml version="1.0" standalone="no"?><!DOCTYPE svg PUBLIC "-//W3C//DTD SVG 1.1//EN" "http://www.w3.org/Graphics/SVG/1.1/DTD/svg11.dtd"><svg t="1592999993583" class="icon" viewBox="0 0 1024 1024" version="1.1" xmlns="http://www.w3.org/2000/svg" p-id="4709" id="mx_n_1592999993587" xmlns:xlink="http://www.w3.org/1999/xlink" width="128" height="128"><defs><style type="text/css"></style></defs><path d="M512 579.535238m-170.666667 0a170.666667 170.666667 0 1 0 341.333334 0 170.666667 170.666667 0 1 0-341.333334 0Z"  p-id="4710" data-spm-anchor-id="a313x.7781069.0.i27" class=""></path><path d="M512 554.666667a11.459048 11.459048 0 0 1-8.533333-3.657143l-59.245715-59.245714c-4.87619-4.87619-4.87619-12.434286 0-17.310477s12.434286-4.87619 17.310477 0L512 525.165714l50.468571-50.468571c4.87619-4.87619 12.434286-4.87619 17.310477 0s4.87619 12.434286 0 17.310476l-59.245715 59.245714a12.190476 12.190476 0 0 1-8.533333 3.413334zM590.994286 584.899048h-158.232381c-6.826667 0-12.190476-5.36381-12.190476-12.190477s5.36381-12.190476 12.190476-12.190476h158.232381c6.826667 0 12.190476 5.36381 12.190476 12.190476s-5.36381 12.190476-12.190476 12.190477zM590.994286 645.851429h-158.232381c-6.826667 0-12.190476-5.36381-12.190476-12.190477s5.36381-12.190476 12.190476-12.190476h158.232381c6.826667 0 12.190476 5.36381 12.190476 12.190476s-5.36381 12.190476-12.190476 12.190477z" p-id="4711"  data-spm-anchor-id="a313x.7781069.0.i26" class="selected"></path><path d="M512 709.729524c-6.826667 0-12.190476-5.36381-12.190476-12.190476v-155.062858c0-6.826667 5.36381-12.190476 12.190476-12.190476s12.190476 5.36381 12.190476 12.190476v155.062858c0 6.826667-5.36381 12.190476-12.190476 12.190476zM902.095238 288.426667H121.904762c-6.826667 0-12.190476-5.36381-12.190476-12.190477s5.36381-12.190476 12.190476-12.190476h780.190476c6.826667 0 12.190476 5.36381 12.190476 12.190476s-5.36381 12.190476-12.190476 12.190477z" p-id="4712"  data-spm-anchor-id="a313x.7781069.0.i28" class="selected"></path><path d="M512 796.769524c-119.710476 0-217.234286-97.52381-217.234286-217.234286s97.52381-217.234286 217.234286-217.234286 217.234286 97.52381 217.234286 217.234286c0 58.026667-22.674286 112.64-63.634286 153.6-3.413333 3.413333-8.777143 4.632381-13.165714 2.681905s-7.558095-6.339048-7.558096-11.215238V655.847619c0-6.826667 5.36381-12.190476 12.190477-12.190476s12.190476 5.36381 12.190476 12.190476v35.596191a191.585524 191.585524 0 0 0 35.59619-111.908572c0-106.300952-86.552381-192.853333-192.853333-192.853333s-192.853333 86.552381-192.853333 192.853333 86.552381 192.853333 192.853333 192.853333c6.826667 0 12.190476 5.36381 12.190476 12.190477s-5.36381 12.190476-12.190476 12.190476zM360.838095 210.407619c-26.819048 0-48.761905-21.942857-48.761905-48.761905v-48.761904c0-26.819048 21.942857-48.761905 48.761905-48.761905s48.761905 21.942857 48.761905 48.761905v48.761904c0 27.062857-21.699048 48.761905-48.761905 48.761905z m0-121.904762c-13.409524 0-24.380952 10.971429-24.380952 24.380953v48.761904c0 13.409524 10.971429 24.380952 24.380952 24.380953s24.380952-10.971429 24.380953-24.380953v-48.761904c0-13.409524-10.727619-24.380952-24.380953-24.380953z" p-id="4713" ></path><path d="M657.554286 210.407619c-26.819048 0-48.761905-21.942857-48.761905-48.761905v-48.761904c0-26.819048 21.942857-48.761905 48.761905-48.761905s48.761905 21.942857 48.761904 48.761905v48.761904a48.761905 48.761905 0 0 1-48.761904 48.761905z m0-121.904762c-13.409524 0-24.380952 10.971429-24.380953 24.380953v48.761904c0 13.409524 10.971429 24.380952 24.380953 24.380953s24.380952-10.971429 24.380952-24.380953v-48.761904c0-13.409524-10.971429-24.380952-24.380952-24.380953z" p-id="4714" ></path><path d="M572.220952 152.380952H446.171429c-6.826667 0-12.190476-5.36381-12.190477-12.190476s5.36381-12.190476 12.190477-12.190476h126.049523c6.826667 0 12.190476 5.36381 12.190477 12.190476s-5.36381 12.190476-12.190477 12.190476z" p-id="4715" ></path><path d="M853.333333 911.11619H170.666667a60.952381 60.952381 0 0 1-60.952381-60.95238V188.952381A60.952381 60.952381 0 0 1 170.666667 128h104.838095c6.826667 0 12.190476 5.36381 12.190476 12.190476s-5.36381 12.190476-12.190476 12.190476H170.666667c-20.23619 0-36.571429 16.335238-36.571429 36.571429v660.967619c0 20.23619 16.335238 36.571429 36.571429 36.571429h682.666666c20.23619 0 36.571429-16.335238 36.571429-36.571429V188.952381c0-20.23619-16.335238-36.571429-36.571429-36.571429h-110.445714c-6.826667 0-12.190476-5.36381-12.190476-12.190476s5.36381-12.190476 12.190476-12.190476H853.333333a60.952381 60.952381 0 0 1 60.952381 60.952381v660.967619c0 33.889524-27.306667 61.19619-60.952381 61.19619z" p-id="4716" ></path></svg>