<?xml version="1.0" standalone="no"?><!DOCTYPE svg PUBLIC "-//W3C//DTD SVG 1.1//EN" "http://www.w3.org/Graphics/SVG/1.1/DTD/svg11.dtd"><svg t="1594043890849" class="icon" viewBox="0 0 1024 1024" version="1.1" xmlns="http://www.w3.org/2000/svg" p-id="1336" xmlns:xlink="http://www.w3.org/1999/xlink" width="128" height="128"><defs><style type="text/css"></style></defs><path d="M408.54169699 818.031998c20.37197999 0 40.61809299-8.223289 55.547107-22.560832l0.11461001-0.109494L816.862359 442.270892c27.701922-27.741831 49.40113-79.993892 49.40113-118.956276L866.263489 117.892037c0-20.80893201-8.217149-40.48711-23.13797599-55.407937-14.920828-14.920828-34.597983-23.137976-55.40793701-23.137976l-205.386764 0c-39.270399 0-91.328032 21.72479101-118.55411599 49.468668l-353.38549301 352.954681c-14.498202 14.405081-22.813588 34.56012-22.813588 55.298444 0 20.41905199 8.229428 40.671305 22.578228 55.56348l0.104377 0.10847 242.98201 242.514359C367.717919 809.729915 387.873981 818.031998 408.54169699 818.031998zM374.949624 773.547855L132.167159 531.232017c-8.829086-9.215896-13.890358-21.65929899-13.890358-34.164101 0-12.43419401 5.140067-24.965601 13.78086499-33.550117L485.537302 110.471021l0.11460999-0.116657c21.412682-21.849634 65.686025-40.308031 96.67992301-40.308031L787.718599 70.046333c25.93569601 0 47.84570501 21.911032 47.845705 47.846728l0 205.423603c0 31.308053-18.13503199 74.940806-40.424688 97.262184L442.718077 773.431198c-9.254781 8.837272-21.70227801 13.901615-34.17535701 13.901615C396.140249 787.332812 383.582235 782.179442 374.949624 773.547855z" p-id="1337"></path><path d="M771.46952 212.686007c0-21.053502-8.149611-40.798195-22.948665-55.597249s-34.543747-22.948665-55.597249-22.948665-40.798195 8.149611-55.596226 22.948665c-14.799054 14.799054-22.948665 34.543747-22.948665 55.597249s8.149611 40.798195 22.94866501 55.596226c14.798031 14.799054 34.542724 22.948665 55.59622599 22.948665s40.798195-8.149611 55.597249-22.948665C763.319909 253.484202 771.46952 233.739509 771.46952 212.686007zM645.077901 212.686007c0-26.38288001 21.463848-47.84672801 47.845705-47.846728s47.84672801 21.463848 47.846728 47.846728-21.46384801 47.845705-47.846728 47.845705S645.077901 239.068887 645.077901 212.686007z" p-id="1338"></path><path d="M453.456652 973.988979L806.000987 621.012809c25.155936-25.191752 44.913932-73.056899 44.913932-108.110253L850.91492 402.273946c0 35.053354-19.757996 82.917478-44.913932 108.11025301l-352.544335 353.04780199c-11.840676 11.30037-28.142967 18.209734-44.913932 18.209734s-33.073256-6.909363-44.446281-18.209734L132.078131 631.377878c-17.310248 16.77096499-29.150924 29.582759-29.150924 55.277978 0 16.770965 6.909363 33.109072 18.282389 44.913932l242.886843 242.41919201c11.372002 11.372002 27.675316 18.282389 44.446281 18.28238899S441.615976 985.360981 453.456652 973.988979z" p-id="1339"></path></svg>