<?xml version="1.0" standalone="no"?><!DOCTYPE svg PUBLIC "-//W3C//DTD SVG 1.1//EN" "http://www.w3.org/Graphics/SVG/1.1/DTD/svg11.dtd"><svg t="1594024903107" class="icon" viewBox="0 0 1024 1024" version="1.1" xmlns="http://www.w3.org/2000/svg" p-id="1059" xmlns:xlink="http://www.w3.org/1999/xlink" width="128" height="128"><defs><style type="text/css"></style></defs><path d="M736.026743 0.036475H287.942861A199.148392 199.148392 0 0 0 85.333333 194.658767v475.240482a31.94894 31.94894 0 0 0 63.89788 0V194.658767A134.984271 134.984271 0 0 1 287.942861 63.934355h448.083882a134.984271 134.984271 0 0 1 138.711648 130.724412v625.666741c0 99.307955-38.87121 139.776612-133.120583 139.776612H283.416761c-96.379302 0-133.120583-39.137451-133.120583-139.776612a31.94894 31.94894 0 1 0-63.89788 0c0 135.250512 66.560292 203.674492 198.083428 203.674492h456.071117c131.523136 0 198.083428-68.42398 198.083428-203.674492V194.658767A198.882151 198.882151 0 0 0 736.026743 0.036475z m48.189651 176.517893a31.94894 31.94894 0 0 0-43.39731-12.513335c-215.389103 117.944837-449.415088 0-452.609982 0a31.94894 31.94894 0 0 0-29.286528 56.97561 634.452699 634.452699 0 0 0 266.241166 60.702986 505.858216 505.858216 0 0 0 244.675631-60.969227 32.215181 32.215181 0 0 0 14.377023-44.196034zM658.550564 639.015274a31.94894 31.94894 0 0 0 0-63.89788h-86.79462l88.125826-133.120583a31.94894 31.94894 0 0 0-53.248233-35.410075l-92.918167 139.776612-93.184409-139.776612a31.94894 31.94894 0 0 0-53.248233 35.410075l88.392067 133.120583h-83.599726a31.94894 31.94894 0 0 0 0 63.89788H484.695083v53.248233h-112.620014a31.94894 31.94894 0 0 0 0 63.89788H484.695083v82.26852a31.94894 31.94894 0 1 0 63.897879 0v-82.801002h111.288808a31.94894 31.94894 0 0 0 0-63.89788h-112.620013V639.015274z" p-id="1060"></path></svg>