<?xml version="1.0" standalone="no"?><!DOCTYPE svg PUBLIC "-//W3C//DTD SVG 1.1//EN" "http://www.w3.org/Graphics/SVG/1.1/DTD/svg11.dtd"><svg t="1594022627441" class="icon" viewBox="0 0 1207 1024" version="1.1" xmlns="http://www.w3.org/2000/svg" p-id="1114" xmlns:xlink="http://www.w3.org/1999/xlink" width="150.875" height="128"><defs><style type="text/css"></style></defs><path d="M1205.486864 433.627437l1.863394 1.475188q-0.918757-0.776414-1.863394-1.475188zM69.502028 435.749637l3.364463-2.66569a32.3506 32.3506 0 0 0-3.364463 2.66569z" p-id="1115"></path><path d="M432.540457 819.725374a102.137313 102.137313 0 1 0 102.137313 102.137313 102.137313 102.137313 0 0 0-102.137313-102.137313z m0 143.00259a40.852337 40.852337 0 1 1 40.852337-40.852337A40.852337 40.852337 0 0 1 432.540457 962.753845zM943.252903 819.725374a102.137313 102.137313 0 1 0 102.137313 102.137313 102.137313 102.137313 0 0 0-102.137313-102.137313z m0 143.00259a40.852337 40.852337 0 1 1 40.852338-40.852337A40.852337 40.852337 0 0 1 943.252903 962.753845zM1080.160641 186.442976H269.118168a81.44587 81.44587 0 0 0-30.901293 6.068972c-13.535491-51.152768-25.117006-93.169727-30.370743-108.206285-17.236399-49.172911-49.884625-73.88877-106.407592-81.717615-17.534025-2.432765-67.159845-2.588048-70.783112-2.588048A30.642488 30.642488 0 0 0 0.01294 30.642488c0 16.925834 13.716654 33.230536 30.642488 33.230536H64.830602c38.445453 0 67.030442 23.046567 81.717614 61.284976 5.797227 15.10126 26.074583 86.829009 40.852337 142.98965 0 0 90.012308 393.240949 102.137314 428.994832s36.582058 102.137313 81.717614 102.137313h592.430061c45.122616 0 84.900914-52.990282 102.137313-102.137313s96.314205-326.844578 102.137313-428.981892c0-45.446122-42.702792-81.717615-87.799527-81.717614zM1004.537879 676.774544c-14.687172 38.225469-43.272162 61.284976-81.717614 61.284976H412.120759c-38.445453 0-50.958665-33.4764-61.284976-61.284976s-81.717615-367.761617-81.717615-367.761616c0-35.106871 31.160098-61.284976 69.60555-61.284976h686.23386c38.445453 0 71.663048 25.142886 71.663048 60.249756 0 0-77.408515 330.506666-92.082747 368.796836z" p-id="1116"></path><path d="M919.85695 370.297904H470.48124a30.642488 30.642488 0 0 0 0 61.284975h449.37571a30.642488 30.642488 0 1 0 0-61.284975zM889.214462 533.733133H501.071967a30.642488 30.642488 0 0 0 0 61.284976h388.142495a30.642488 30.642488 0 0 0 0-61.284976z" p-id="1117"></path></svg>