<?xml version="1.0" standalone="no"?><!DOCTYPE svg PUBLIC "-//W3C//DTD SVG 1.1//EN" "http://www.w3.org/Graphics/SVG/1.1/DTD/svg11.dtd"><svg t="1595989121491" class="icon" viewBox="0 0 1024 1024" version="1.1" xmlns="http://www.w3.org/2000/svg" p-id="12715" xmlns:xlink="http://www.w3.org/1999/xlink" width="128" height="128"><defs><style type="text/css"></style></defs><path d="M412.173357 0C318.998261 0 243.186643 91.412035 243.186643 203.784904a6.20633 6.20633 0 1 0 12.412661 0c0-105.516522 70.2464-191.372243 156.574053-191.372243 86.345461 0 156.591861 85.846817 156.59186 191.372243a6.20633 6.20633 0 1 0 12.412661 0C581.177878 91.412035 505.366261 0 412.173357 0z" fill="#99734A" p-id="12716"></path><path d="M634.390261 114.509913l-512.035618 0.071235a46.979339 46.979339 0 0 0-46.908104 44.432695l-39.962713 737.15534a46.988243 46.988243 0 0 0 46.917009 49.525982l591.747339-0.080139a46.979339 46.979339 0 0 0 46.908104-49.508174l-39.757913-737.13753a46.96153 46.96153 0 0 0-46.908104-44.459409z" fill="#71A58A" p-id="12717"></path><path d="M640.712348 136.565983H115.809948a46.979339 46.979339 0 0 0-46.908105 44.414887L28.137739 927.592626a46.979339 46.979339 0 0 0 46.908104 49.543791h606.430609a46.979339 46.979339 0 0 0 46.908105-49.543791l-40.764105-746.602852a46.988243 46.988243 0 0 0-46.908104-44.423791z" fill="#96CEB4" p-id="12718"></path><path d="M218.25447 203.784904m-18.618992 0a18.618991 18.618991 0 1 0 37.237983 0 18.618991 18.618991 0 1 0-37.237983 0Z" fill="#99734A" p-id="12719"></path><path d="M542.666574 203.784904m-18.618991 0a18.618991 18.618991 0 1 0 37.237982 0 18.618991 18.618991 0 1 0-37.237982 0Z" fill="#99734A" p-id="12720"></path><path d="M380.322504 0C287.138504 0 211.326887 91.412035 211.326887 203.784904a6.20633 6.20633 0 1 0 12.412661 0c0-105.516522 70.2464-191.372243 156.574052-191.372243 86.345461 0 156.591861 85.846817 156.591861 191.372243a6.20633 6.20633 0 1 0 12.412661 0C549.327026 91.412035 473.515409 0 380.322504 0z" fill="#B28559" p-id="12721"></path><path d="M693.675409 284.778852l-2.689113-42.108661-625.379061-1.460313-2.929531 53.719931-0.302747 5.476174c2.680209 18.512139 21.575235 27.941843 41.49426 27.941843s36.338643-14.255861 39.018853-32.768h0.854817c2.680209 18.512139 19.099826 32.768 39.018852 32.768s36.338643-14.255861 39.018852-32.768h0.854818c2.680209 18.512139 19.099826 32.768 39.018852 32.768s36.338643-14.255861 39.018852-32.768h0.854817c2.680209 18.512139 19.099826 32.768 39.018853 32.768 19.919026 0 36.338643-14.255861 39.018852-32.768h0.854817c2.680209 18.512139 19.099826 32.768 39.018852 32.768 19.919026 0 36.338643-14.255861 39.018853-32.768h0.854817c2.680209 18.512139 19.099826 32.768 39.018852 32.768 19.919026 0 36.338643-14.255861 39.018852-32.768h0.854818c2.680209 18.512139 19.099826 32.768 39.018852 32.768 19.919026 0 36.338643-14.255861 39.018852-32.768h0.854817c2.680209 18.512139 19.099826 32.768 39.018853 32.768s34.949565-14.469565 37.629773-32.981704c0.249322-1.736348 0.427409-3.490504 0.427409-5.298087a54.272 54.272 0 0 0-0.498643-5.289183z" fill="#FFEEAD" p-id="12722"></path><path d="M702.650991 456.240974l-246.142887 0.017809a38.404452 38.404452 0 0 0-38.351026 36.338643l-26.267826 484.538991h339.202226l-28.440487-520.895443z" fill="#71A58A" p-id="12723"></path><path d="M920.7808 473.942817l-409.617809 0.044522a46.979339 46.979339 0 0 0-46.908104 44.432696l-23.632139 436.010295a46.988243 46.988243 0 0 0 46.917009 49.525983l456.76633-0.053426a46.979339 46.979339 0 0 0 46.908104-49.508174l-23.516382-436.001391a46.970435 46.970435 0 0 0-46.917009-44.450505z" fill="#E05858" p-id="12724"></path><path d="M924.823374 488.002783H506.986852a46.979339 46.979339 0 0 0-46.908104 44.414887l-24.139687 442.038539A46.979339 46.979339 0 0 0 482.847165 1024h466.106992a46.979339 46.979339 0 0 0 46.908104-49.543791l-24.139687-442.038539a46.970435 46.970435 0 0 0-46.8992-44.414887z" fill="#FF6F69" p-id="12725"></path><path d="M782.416139 682.785391a70.59367 70.59367 0 0 0-58.679652 31.280974 70.682713 70.682713 0 0 0-129.362365 39.401739c0 3.454887 0.329461 6.82073 0.810295 10.142053 9.251617 89.319513 105.6768 128.845913 128.55207 128.845913 24.9856 0 119.202504-40.888765 128.525356-128.632209 0.498643-3.392557 0.845913-6.829635 0.845914-10.355757a70.700522 70.700522 0 0 0-70.691618-70.682713z" fill="#FFEEAD" p-id="12726"></path><path d="M866.268383 557.759443m-17.265531 0a17.26553 17.26553 0 1 0 34.531061 0 17.26553 17.26553 0 1 0-34.531061 0Z" fill="#99734A" p-id="12727"></path><path d="M565.550748 557.759443m-17.265531 0a17.26553 17.26553 0 1 0 34.531061 0 17.26553 17.26553 0 1 0-34.531061 0Z" fill="#99734A" p-id="12728"></path><path d="M866.936209 552.016139a5.752209 5.752209 0 0 0-5.752209 5.752209c0 97.814261-65.117496 177.392417-145.14087 177.392417-80.041183 0-145.149774-79.578157-145.149773-177.392417a5.752209 5.752209 0 1 0-11.504418 0c0 104.163061 70.273113 188.896835 156.663096 188.896835 86.372174 0 156.645287-84.733774 156.645287-188.896835a5.761113 5.761113 0 0 0-5.761113-5.752209z" fill="#B28559" p-id="12729"></path></svg>