<?xml version="1.0" standalone="no"?><!DOCTYPE svg PUBLIC "-//W3C//DTD SVG 1.1//EN" "http://www.w3.org/Graphics/SVG/1.1/DTD/svg11.dtd"><svg t="1592999769918" class="icon" viewBox="0 0 1024 1024" version="1.1" xmlns="http://www.w3.org/2000/svg" p-id="951" xmlns:xlink="http://www.w3.org/1999/xlink" width="128" height="128"><defs><style type="text/css"></style></defs><path d="M925.538462 413.538462L836.923077 173.292308C823.138462 128 779.815385 98.461538 732.553846 98.461538H291.446154c-47.261538 0-90.584615 29.538462-106.338462 74.83077L98.461538 413.538462c-41.353846 11.815385-59.076923 51.2-59.076923 94.523076v228.43077c0 41.353846 43.323077 76.8 78.769231 90.584615v78.769231c0 25.6 13.784615 39.384615 39.384616 39.384615h100.430769c25.6 0 37.415385-13.784615 37.415384-39.384615v-78.769231h433.23077v78.769231c0 25.6 13.784615 39.384615 39.384615 39.384615h98.461538c25.6 0 39.384615-13.784615 39.384616-39.384615v-78.769231c35.446154-13.784615 78.769231-47.261538 78.769231-90.584615V508.061538c0-43.323077-17.723077-82.707692-59.076923-94.523076zM216.615385 669.538462c-43.323077 0-78.769231-35.446154-78.769231-78.769231s35.446154-78.769231 78.769231-78.769231 78.769231 35.446154 78.76923 78.769231-35.446154 78.769231-78.76923 78.769231z m326.892307-256H232.369231c-11.815385 0-19.692308-9.846154-15.753846-19.692308l59.076923-177.230769c1.969231-5.907692 5.907692-19.692308 19.692307-19.692308h433.23077c15.753846 0 17.723077 15.753846 19.692307 19.692308l59.076923 177.230769c3.938462 11.815385-1.969231 19.692308-17.723077 19.692308H543.507692zM807.384615 669.538462c-43.323077 0-78.769231-35.446154-78.76923-78.769231s35.446154-78.769231 78.76923-78.769231 78.769231 35.446154 78.769231 78.769231-35.446154 78.769231-78.769231 78.769231z" p-id="952" fill="#8a8a8a"></path></svg>