<?xml version="1.0" standalone="no"?><!DOCTYPE svg PUBLIC "-//W3C//DTD SVG 1.1//EN" "http://www.w3.org/Graphics/SVG/1.1/DTD/svg11.dtd"><svg t="1593568661102" class="icon" viewBox="0 0 1024 1024" version="1.1" xmlns="http://www.w3.org/2000/svg" p-id="2663" xmlns:xlink="http://www.w3.org/1999/xlink" width="128" height="128"><defs><style type="text/css"></style></defs><path d="M515.338089 224.410687c-72.166316 0-130.90547 58.739155-130.90547 130.90547s58.739155 130.90547 130.90547 130.90547 130.90547-58.739155 130.905471-130.90547-58.739155-130.90547-130.905471-130.90547z m0 224.409377c-51.558055 0-93.503907-41.945853-93.503907-93.503907s41.945853-93.503907 93.503907-93.503907 93.503907 41.945853 93.503908 93.503907-41.945853 93.503907-93.503908 93.503907z" fill="" p-id="2664"></path><path d="M765.610648 105.043599A356.287289 356.287289 0 0 0 512.028051 0.001309a356.249887 356.249887 0 0 0-253.582597 105.04229c-125.351338 125.332637-140.929089 361.149492-33.736209 504.023462L512.028051 1024 798.91674 609.646785c107.622997-143.453695 92.045246-379.270549-33.306092-504.603186z m2.973424 482.741972L512.028051 958.285454 255.060613 587.205847C157.83525 457.57203 171.767332 244.607531 284.90706 131.486504 345.572395 70.821168 426.228866 37.402872 512.028051 37.402872s166.455656 33.418296 227.139692 94.083632c113.139728 113.121027 127.07181 326.085526 29.416329 456.299067z" fill="" p-id="2665"></path></svg>